<svg width="119" height="32" fill="none" xmlns="http://www.w3.org/2000/svg"><rect rx="16" width="119" height="32" fill="#FF3E79"/><rect rx="16" width="119" height="32"/><path d="M24.61 15.34q.21-.4.21-.91 0-.36-.12-.67-.2-.49-.69-.85-.81-.6-2.26-.6-1.1 0-1.91.25-.8.25-1.46.68l.79 1.22q0-.01.01-.01.5-.31 1.07-.5.59-.19 1.25-.19.78 0 1.17.26.21.14.31.34.08.16.08.36 0 .19-.07.35-.06.14-.16.25-.23.25-.79.38-.57.14-1.59.14h-.72v1.41h.81q1.26 0 2 .29.52.19.68.55.07.15.07.34 0 .29-.12.52-.13.24-.39.41-.51.33-1.66.33-.4 0-.88-.07-.23-.03-.45-.08-.26-.05-.5-.11-.47-.13-.84-.31v1.53q.55.22 1.3.35.75.12 1.72.12 1.78 0 2.69-.72.5-.38.73-.89.19-.43.19-.95 0-.46-.18-.84-.16-.3-.45-.55-.62-.53-1.8-.65v-.04q.93-.13 1.54-.64l.02-.02q.25-.21.4-.48Zm31.8 0q.21-.4.21-.91 0-.36-.12-.67-.2-.49-.69-.85-.81-.6-2.26-.6-1.1 0-1.91.25-.8.25-1.46.68l.79 1.22q0-.01.01-.01.5-.31 1.07-.5.59-.19 1.25-.19.78 0 1.17.26.21.14.31.34.08.16.08.36 0 .19-.07.35-.06.14-.16.25-.23.25-.79.38-.57.14-1.59.14h-.72v1.41h.81q1.26 0 2 .29.52.19.68.55.07.15.07.34 0 .29-.12.52-.13.24-.39.41-.51.33-1.66.33-.4 0-.88-.07-.23-.03-.45-.08-.26-.05-.5-.11-.47-.13-.84-.31v1.53q.55.22 1.3.35.75.12 1.72.12 1.78 0 2.69-.72.5-.38.73-.89.19-.43.19-.95 0-.46-.18-.84-.16-.3-.45-.55-.62-.53-1.8-.65v-.04q.93-.13 1.54-.64l.02-.02q.25-.21.4-.48Zm-25.26 3.62.63 2.04h1.95l-3.03-8.61h-2.23L25.45 21h1.96l.62-2.04h3.12Zm16.05 0 .62 2.04h1.95l-3.03-8.61h-2.22l-2.98 8.47-3.18-4.32 3.12-4.11h-1.93l-3.08 4.15v-4.15h-1.81V21h1.81v-4.35L39.58 21h3.87l.63-2.04h3.12Zm15.75 0 .63 2.04h1.95l-3.03-8.61h-2.23L57.25 21h1.96l.62-2.04h3.12ZM67.11 21h1.81v-7.06h2.33v-1.51h-6.47v1.51h2.33V21Zm5.31-8.57V21h2.5q1.84 0 2.69-.71.26-.21.44-.48.41-.61.41-1.49 0-.57-.22-1.05-.07-.15-.16-.29v-.01q-.37-.58-1.14-.92-.78-.33-1.99-.33h-.72v-3.29h-1.81Zm-42.48 2.49q.1.32.15.52l.63 1.99h-2.23l.61-1.99q.05-.13.14-.45l.19-.67q.1-.36.16-.6.06.24.16.57.09.32.19.63Zm16.04 0q.1.32.16.52l.62 1.99h-2.23l.61-1.99q.05-.13.14-.45l.19-.67q.11-.36.16-.6.07.24.16.57.1.32.19.63Zm15.76 0q.1.32.15.52l.63 1.99h-2.23l.61-1.99q.05-.13.14-.45l.19-.67q.1-.36.16-.6.06.24.16.57.09.32.19.63Zm14.4 4.32q-.47.27-1.3.27h-.61V17.2h.47q.89 0 1.4.22.18.07.29.2.23.25.23.7 0 .45-.22.72-.11.12-.26.2Z" fill="#FFF" fill-rule="evenodd"/><rect x="87" y="4" rx="12" width="24" height="24" fill="#FF3E79"/><path d="m99.8 16-3.01-2.78a.995.995 0 0 1-.01-1.46l.14-.13c.38-.36.97-.36 1.36 0l3.92 3.63c.43.4.43 1.07 0 1.47l-3.86 3.57c-.42.39-1.07.39-1.49 0-.46-.44-.46-1.17.01-1.6L99.8 16Z" fill="#FFF" fill-rule="evenodd"/></svg>